<mxfile host="app.diagrams.net" modified="2021-08-06T16:43:06.117Z" agent="5.0 (X11)" etag="Lk7sMtVgSAWn6m0P_IQw" version="14.9.4" type="github" pages="4">
  <diagram id="gKRfP5l9c6VmXvw1GVtw" name="Page-1">
    <mxGraphModel dx="882" dy="741" grid="1" gridSize="10" guides="1" tooltips="1" connect="1" arrows="1" fold="1" page="1" pageScale="1" pageWidth="850" pageHeight="1100" math="0" shadow="0">
      <root>
        <mxCell id="0" />
        <mxCell id="1" parent="0" />
        <mxCell id="3_T9KiSm1RLVggJsckEq-16" style="edgeStyle=orthogonalEdgeStyle;rounded=0;orthogonalLoop=1;jettySize=auto;html=1;exitX=1;exitY=0.5;exitDx=0;exitDy=0;entryX=0;entryY=0.132;entryDx=0;entryDy=0;entryPerimeter=0;" parent="1" source="3_T9KiSm1RLVggJsckEq-1" target="3_T9KiSm1RLVggJsckEq-8" edge="1">
          <mxGeometry relative="1" as="geometry" />
        </mxCell>
        <mxCell id="3_T9KiSm1RLVggJsckEq-1" value="&lt;div&gt;View&lt;/div&gt;" style="rounded=1;whiteSpace=wrap;html=1;" parent="1" vertex="1">
          <mxGeometry x="220" y="135" width="320" height="60" as="geometry" />
        </mxCell>
        <mxCell id="3_T9KiSm1RLVggJsckEq-14" style="edgeStyle=orthogonalEdgeStyle;rounded=0;orthogonalLoop=1;jettySize=auto;html=1;exitX=1;exitY=0.5;exitDx=0;exitDy=0;entryX=0;entryY=0.5;entryDx=0;entryDy=0;" parent="1" source="3_T9KiSm1RLVggJsckEq-2" target="3_T9KiSm1RLVggJsckEq-8" edge="1">
          <mxGeometry relative="1" as="geometry" />
        </mxCell>
        <mxCell id="3_T9KiSm1RLVggJsckEq-2" value="Control" style="rounded=1;whiteSpace=wrap;html=1;" parent="1" vertex="1">
          <mxGeometry x="220" y="250" width="320" height="60" as="geometry" />
        </mxCell>
        <mxCell id="3_T9KiSm1RLVggJsckEq-3" value="Model" style="rounded=1;whiteSpace=wrap;html=1;" parent="1" vertex="1">
          <mxGeometry x="220" y="360" width="320" height="60" as="geometry" />
        </mxCell>
        <mxCell id="3_T9KiSm1RLVggJsckEq-4" value="" style="endArrow=classic;html=1;entryX=0.25;entryY=0;entryDx=0;entryDy=0;exitX=0.25;exitY=1;exitDx=0;exitDy=0;" parent="1" source="3_T9KiSm1RLVggJsckEq-1" target="3_T9KiSm1RLVggJsckEq-2" edge="1">
          <mxGeometry width="50" height="50" relative="1" as="geometry">
            <mxPoint x="400" y="390" as="sourcePoint" />
            <mxPoint x="450" y="340" as="targetPoint" />
          </mxGeometry>
        </mxCell>
        <mxCell id="3_T9KiSm1RLVggJsckEq-5" value="" style="endArrow=classic;html=1;exitX=0.25;exitY=1;exitDx=0;exitDy=0;" parent="1" source="3_T9KiSm1RLVggJsckEq-2" edge="1">
          <mxGeometry width="50" height="50" relative="1" as="geometry">
            <mxPoint x="310" y="200" as="sourcePoint" />
            <mxPoint x="300" y="360" as="targetPoint" />
          </mxGeometry>
        </mxCell>
        <mxCell id="3_T9KiSm1RLVggJsckEq-6" value="" style="endArrow=classic;html=1;entryX=0.75;entryY=1;entryDx=0;entryDy=0;exitX=0.75;exitY=0;exitDx=0;exitDy=0;" parent="1" source="3_T9KiSm1RLVggJsckEq-3" target="3_T9KiSm1RLVggJsckEq-2" edge="1">
          <mxGeometry width="50" height="50" relative="1" as="geometry">
            <mxPoint x="440" y="360" as="sourcePoint" />
            <mxPoint x="440" y="420" as="targetPoint" />
          </mxGeometry>
        </mxCell>
        <mxCell id="3_T9KiSm1RLVggJsckEq-7" value="" style="endArrow=classic;html=1;entryX=0.75;entryY=1;entryDx=0;entryDy=0;exitX=0.75;exitY=0;exitDx=0;exitDy=0;" parent="1" source="3_T9KiSm1RLVggJsckEq-2" target="3_T9KiSm1RLVggJsckEq-1" edge="1">
          <mxGeometry width="50" height="50" relative="1" as="geometry">
            <mxPoint x="330" y="220" as="sourcePoint" />
            <mxPoint x="330" y="280" as="targetPoint" />
          </mxGeometry>
        </mxCell>
        <mxCell id="3_T9KiSm1RLVggJsckEq-8" value="Class" style="rounded=1;whiteSpace=wrap;html=1;" parent="1" vertex="1">
          <mxGeometry x="630" y="122.5" width="70" height="315" as="geometry" />
        </mxCell>
        <mxCell id="3_T9KiSm1RLVggJsckEq-17" value="" style="endArrow=classic;html=1;entryX=0.014;entryY=0.827;entryDx=0;entryDy=0;entryPerimeter=0;" parent="1" target="3_T9KiSm1RLVggJsckEq-8" edge="1">
          <mxGeometry width="50" height="50" relative="1" as="geometry">
            <mxPoint x="540" y="383" as="sourcePoint" />
            <mxPoint x="450" y="340" as="targetPoint" />
          </mxGeometry>
        </mxCell>
        <mxCell id="3_T9KiSm1RLVggJsckEq-18" value="Database" style="shape=cylinder3;whiteSpace=wrap;html=1;boundedLbl=1;backgroundOutline=1;size=15;" parent="1" vertex="1">
          <mxGeometry x="330" y="460" width="100" height="80" as="geometry" />
        </mxCell>
        <mxCell id="3_T9KiSm1RLVggJsckEq-19" value="" style="endArrow=classic;html=1;exitX=0.5;exitY=1;exitDx=0;exitDy=0;entryX=0.5;entryY=0;entryDx=0;entryDy=0;entryPerimeter=0;" parent="1" source="3_T9KiSm1RLVggJsckEq-3" target="3_T9KiSm1RLVggJsckEq-18" edge="1">
          <mxGeometry width="50" height="50" relative="1" as="geometry">
            <mxPoint x="400" y="390" as="sourcePoint" />
            <mxPoint x="450" y="340" as="targetPoint" />
          </mxGeometry>
        </mxCell>
      </root>
    </mxGraphModel>
  </diagram>
  <diagram id="5sDDr7JQ-Rd6ADQJljvZ" name="Page-2">
    <mxGraphModel dx="1422" dy="761" grid="1" gridSize="10" guides="1" tooltips="1" connect="1" arrows="1" fold="1" page="1" pageScale="1" pageWidth="850" pageHeight="1100" math="0" shadow="0">
      <root>
        <mxCell id="TRE1HgafRopyLdIJjDo4-0" />
        <mxCell id="TRE1HgafRopyLdIJjDo4-1" parent="TRE1HgafRopyLdIJjDo4-0" />
        <mxCell id="TRE1HgafRopyLdIJjDo4-2" value="Pet" style="swimlane;childLayout=stackLayout;horizontal=1;startSize=30;horizontalStack=0;rounded=1;fontSize=14;fontStyle=0;strokeWidth=2;resizeParent=0;resizeLast=1;shadow=0;dashed=0;align=center;" parent="TRE1HgafRopyLdIJjDo4-1" vertex="1">
          <mxGeometry x="150" y="210" width="160" height="140" as="geometry" />
        </mxCell>
        <mxCell id="TRE1HgafRopyLdIJjDo4-3" value="id&#xa;codename&#xa;born year&#xa;color&#xa;healthStatus" style="align=left;strokeColor=none;fillColor=none;spacingLeft=4;fontSize=12;verticalAlign=top;resizable=0;rotatable=0;part=1;" parent="TRE1HgafRopyLdIJjDo4-2" vertex="1">
          <mxGeometry y="30" width="160" height="110" as="geometry" />
        </mxCell>
        <mxCell id="TRE1HgafRopyLdIJjDo4-4" value="Cat" style="swimlane;childLayout=stackLayout;horizontal=1;startSize=30;horizontalStack=0;rounded=1;fontSize=14;fontStyle=0;strokeWidth=2;resizeParent=0;resizeLast=1;shadow=0;dashed=0;align=center;" parent="TRE1HgafRopyLdIJjDo4-1" vertex="1">
          <mxGeometry x="20" y="420" width="110" height="100" as="geometry" />
        </mxCell>
        <mxCell id="TRE1HgafRopyLdIJjDo4-5" value="id&#xa;breed&#xa;id_pet" style="align=left;strokeColor=none;fillColor=none;spacingLeft=4;fontSize=12;verticalAlign=top;resizable=0;rotatable=0;part=1;" parent="TRE1HgafRopyLdIJjDo4-4" vertex="1">
          <mxGeometry y="30" width="110" height="70" as="geometry" />
        </mxCell>
        <mxCell id="TRE1HgafRopyLdIJjDo4-6" value="Dog" style="swimlane;childLayout=stackLayout;horizontal=1;startSize=30;horizontalStack=0;rounded=1;fontSize=14;fontStyle=0;strokeWidth=2;resizeParent=0;resizeLast=1;shadow=0;dashed=0;align=center;" parent="TRE1HgafRopyLdIJjDo4-1" vertex="1">
          <mxGeometry x="300" y="400" width="110" height="120" as="geometry" />
        </mxCell>
        <mxCell id="TRE1HgafRopyLdIJjDo4-7" value="id&#xa;breed&#xa;pedigree&#xa;id_pet&#xa;" style="align=left;strokeColor=none;fillColor=none;spacingLeft=4;fontSize=12;verticalAlign=top;resizable=0;rotatable=0;part=1;" parent="TRE1HgafRopyLdIJjDo4-6" vertex="1">
          <mxGeometry y="30" width="110" height="90" as="geometry" />
        </mxCell>
        <mxCell id="TRE1HgafRopyLdIJjDo4-8" value="" style="edgeStyle=entityRelationEdgeStyle;fontSize=12;html=1;endArrow=ERoneToMany;exitX=0.5;exitY=0;exitDx=0;exitDy=0;entryX=-0.012;entryY=0.667;entryDx=0;entryDy=0;entryPerimeter=0;" parent="TRE1HgafRopyLdIJjDo4-1" source="TRE1HgafRopyLdIJjDo4-4" target="TRE1HgafRopyLdIJjDo4-3" edge="1">
          <mxGeometry width="100" height="100" relative="1" as="geometry">
            <mxPoint x="200" y="460" as="sourcePoint" />
            <mxPoint x="140" y="340" as="targetPoint" />
          </mxGeometry>
        </mxCell>
        <mxCell id="TRE1HgafRopyLdIJjDo4-10" value="" style="edgeStyle=entityRelationEdgeStyle;fontSize=12;html=1;endArrow=ERoneToMany;entryX=0.813;entryY=1;entryDx=0;entryDy=0;exitX=0.75;exitY=0;exitDx=0;exitDy=0;entryPerimeter=0;" parent="TRE1HgafRopyLdIJjDo4-1" source="TRE1HgafRopyLdIJjDo4-6" target="TRE1HgafRopyLdIJjDo4-3" edge="1">
          <mxGeometry width="100" height="100" relative="1" as="geometry">
            <mxPoint x="370" y="420" as="sourcePoint" />
            <mxPoint x="470" y="320" as="targetPoint" />
          </mxGeometry>
        </mxCell>
        <mxCell id="TRE1HgafRopyLdIJjDo4-11" value="Hospital" style="swimlane;childLayout=stackLayout;horizontal=1;startSize=30;horizontalStack=0;rounded=1;fontSize=14;fontStyle=0;strokeWidth=2;resizeParent=0;resizeLast=1;shadow=0;dashed=0;align=center;" parent="TRE1HgafRopyLdIJjDo4-1" vertex="1">
          <mxGeometry x="480" y="220" width="160" height="140" as="geometry" />
        </mxCell>
        <mxCell id="TRE1HgafRopyLdIJjDo4-12" value="id&#xa;name&#xa;phone&#xa;address&#xa;patientType&#xa;doctorid&#xa;" style="align=left;strokeColor=none;fillColor=none;spacingLeft=4;fontSize=12;verticalAlign=top;resizable=0;rotatable=0;part=1;" parent="TRE1HgafRopyLdIJjDo4-11" vertex="1">
          <mxGeometry y="30" width="160" height="110" as="geometry" />
        </mxCell>
        <mxCell id="TRE1HgafRopyLdIJjDo4-13" value="Doctor" style="swimlane;childLayout=stackLayout;horizontal=1;startSize=30;horizontalStack=0;rounded=1;fontSize=14;fontStyle=0;strokeWidth=2;resizeParent=0;resizeLast=1;shadow=0;dashed=0;align=center;" parent="TRE1HgafRopyLdIJjDo4-1" vertex="1">
          <mxGeometry x="480" y="430" width="160" height="120" as="geometry" />
        </mxCell>
        <mxCell id="TRE1HgafRopyLdIJjDo4-14" value="id&#xa;name&#xa;phone&#xa;address&#xa;" style="align=left;strokeColor=none;fillColor=none;spacingLeft=4;fontSize=12;verticalAlign=top;resizable=0;rotatable=0;part=1;" parent="TRE1HgafRopyLdIJjDo4-13" vertex="1">
          <mxGeometry y="30" width="160" height="90" as="geometry" />
        </mxCell>
        <mxCell id="TRE1HgafRopyLdIJjDo4-19" value="" style="edgeStyle=entityRelationEdgeStyle;fontSize=12;html=1;endArrow=ERoneToMany;entryX=0.5;entryY=1;entryDx=0;entryDy=0;exitX=0.5;exitY=0;exitDx=0;exitDy=0;" parent="TRE1HgafRopyLdIJjDo4-1" source="TRE1HgafRopyLdIJjDo4-13" target="TRE1HgafRopyLdIJjDo4-12" edge="1">
          <mxGeometry width="100" height="100" relative="1" as="geometry">
            <mxPoint x="370" y="420" as="sourcePoint" />
            <mxPoint x="470" y="320" as="targetPoint" />
          </mxGeometry>
        </mxCell>
        <mxCell id="TRE1HgafRopyLdIJjDo4-20" value="PetHospital" style="swimlane;childLayout=stackLayout;horizontal=1;startSize=30;horizontalStack=0;rounded=1;fontSize=14;fontStyle=0;strokeWidth=2;resizeParent=0;resizeLast=1;shadow=0;dashed=0;align=center;" parent="TRE1HgafRopyLdIJjDo4-1" vertex="1">
          <mxGeometry x="300" y="30" width="160" height="120" as="geometry" />
        </mxCell>
        <mxCell id="TRE1HgafRopyLdIJjDo4-21" value="idPet&#xa;idHospital&#xa;date&#xa;" style="align=left;strokeColor=none;fillColor=none;spacingLeft=4;fontSize=12;verticalAlign=top;resizable=0;rotatable=0;part=1;" parent="TRE1HgafRopyLdIJjDo4-20" vertex="1">
          <mxGeometry y="30" width="160" height="90" as="geometry" />
        </mxCell>
        <mxCell id="TRE1HgafRopyLdIJjDo4-22" value="" style="edgeStyle=entityRelationEdgeStyle;fontSize=12;html=1;endArrow=ERoneToMany;entryX=0;entryY=0.5;entryDx=0;entryDy=0;" parent="TRE1HgafRopyLdIJjDo4-1" target="TRE1HgafRopyLdIJjDo4-20" edge="1">
          <mxGeometry width="100" height="100" relative="1" as="geometry">
            <mxPoint x="230" y="210" as="sourcePoint" />
            <mxPoint x="470" y="320" as="targetPoint" />
          </mxGeometry>
        </mxCell>
        <mxCell id="TRE1HgafRopyLdIJjDo4-23" value="" style="edgeStyle=entityRelationEdgeStyle;fontSize=12;html=1;endArrow=ERoneToMany;entryX=1.013;entryY=0.411;entryDx=0;entryDy=0;entryPerimeter=0;exitX=0.5;exitY=0;exitDx=0;exitDy=0;" parent="TRE1HgafRopyLdIJjDo4-1" source="TRE1HgafRopyLdIJjDo4-11" target="TRE1HgafRopyLdIJjDo4-21" edge="1">
          <mxGeometry width="100" height="100" relative="1" as="geometry">
            <mxPoint x="370" y="420" as="sourcePoint" />
            <mxPoint x="470" y="320" as="targetPoint" />
          </mxGeometry>
        </mxCell>
        <mxCell id="TRE1HgafRopyLdIJjDo4-25" value="Siempre que haya una relacion de muchos a muchos, lo mejor es crear una nueva entidad para determinar en este caso las fechas de visita de cada mascota al hospital. ya que muchas mascotas pueden visitar el hospital muchas veces." style="text;html=1;strokeColor=none;fillColor=none;align=center;verticalAlign=middle;whiteSpace=wrap;rounded=0;" parent="TRE1HgafRopyLdIJjDo4-1" vertex="1">
          <mxGeometry x="510" y="50" width="170" height="100" as="geometry" />
        </mxCell>
        <mxCell id="TRE1HgafRopyLdIJjDo4-26" value="Relacion muchas mascotas pueden ser 1 gato." style="text;html=1;strokeColor=none;fillColor=none;align=center;verticalAlign=middle;whiteSpace=wrap;rounded=0;" parent="TRE1HgafRopyLdIJjDo4-1" vertex="1">
          <mxGeometry x="10" y="330" width="100" height="30" as="geometry" />
        </mxCell>
        <mxCell id="TRE1HgafRopyLdIJjDo4-27" value="Relacion un perro debe ser mascota, mas una mascota no es perro" style="text;html=1;strokeColor=none;fillColor=none;align=center;verticalAlign=middle;whiteSpace=wrap;rounded=0;" parent="TRE1HgafRopyLdIJjDo4-1" vertex="1">
          <mxGeometry x="330" y="310" width="110" height="50" as="geometry" />
        </mxCell>
      </root>
    </mxGraphModel>
  </diagram>
  <diagram id="hi94CJzmjQQEQ_gi37_J" name="Page-3">
    <mxGraphModel dx="1662" dy="761" grid="1" gridSize="10" guides="1" tooltips="1" connect="1" arrows="1" fold="1" page="1" pageScale="1" pageWidth="850" pageHeight="1100" math="0" shadow="0">
      <root>
        <mxCell id="bUCIXgbHZLNIl66ZNkcK-0" />
        <mxCell id="bUCIXgbHZLNIl66ZNkcK-1" parent="bUCIXgbHZLNIl66ZNkcK-0" />
        <mxCell id="bUCIXgbHZLNIl66ZNkcK-2" value="cliente" style="swimlane;childLayout=stackLayout;horizontal=1;startSize=30;horizontalStack=0;rounded=1;fontSize=14;fontStyle=0;strokeWidth=2;resizeParent=0;resizeLast=1;shadow=0;dashed=0;align=center;" parent="bUCIXgbHZLNIl66ZNkcK-1" vertex="1">
          <mxGeometry x="210" y="150" width="100" height="130" as="geometry" />
        </mxCell>
        <mxCell id="bUCIXgbHZLNIl66ZNkcK-3" value="id&#xa;nombre&#xa;apellido&#xa;direccion&#xa;telefono&#xa;correo&#xa;" style="align=left;strokeColor=none;fillColor=none;spacingLeft=4;fontSize=12;verticalAlign=top;resizable=0;rotatable=0;part=1;" parent="bUCIXgbHZLNIl66ZNkcK-2" vertex="1">
          <mxGeometry y="30" width="100" height="100" as="geometry" />
        </mxCell>
        <mxCell id="LKaX5k4RRb7FWXOqmFCc-3" value="Cuenta" style="swimlane;childLayout=stackLayout;horizontal=1;startSize=30;horizontalStack=0;rounded=1;fontSize=14;fontStyle=0;strokeWidth=2;resizeParent=0;resizeLast=1;shadow=0;dashed=0;align=center;" parent="bUCIXgbHZLNIl66ZNkcK-1" vertex="1">
          <mxGeometry x="30" y="210" width="90" height="120" as="geometry" />
        </mxCell>
        <mxCell id="LKaX5k4RRb7FWXOqmFCc-4" value="id&#xa;tipoCuenta&#xa;saldo&#xa;id_cliente&#xa;" style="align=left;strokeColor=none;fillColor=none;spacingLeft=4;fontSize=12;verticalAlign=top;resizable=0;rotatable=0;part=1;" parent="LKaX5k4RRb7FWXOqmFCc-3" vertex="1">
          <mxGeometry y="30" width="90" height="90" as="geometry" />
        </mxCell>
        <mxCell id="LKaX5k4RRb7FWXOqmFCc-5" value="Pedido" style="swimlane;childLayout=stackLayout;horizontal=1;startSize=30;horizontalStack=0;rounded=1;fontSize=14;fontStyle=0;strokeWidth=2;resizeParent=0;resizeLast=1;shadow=0;dashed=0;align=center;" parent="bUCIXgbHZLNIl66ZNkcK-1" vertex="1">
          <mxGeometry x="500" y="210" width="160" height="120" as="geometry" />
        </mxCell>
        <mxCell id="LKaX5k4RRb7FWXOqmFCc-6" value="idpedido&#xa;producto&#xa;valorTotal&#xa;cobrado&#xa;fecha&#xa;" style="align=left;strokeColor=none;fillColor=none;spacingLeft=4;fontSize=12;verticalAlign=top;resizable=0;rotatable=0;part=1;" parent="LKaX5k4RRb7FWXOqmFCc-5" vertex="1">
          <mxGeometry y="30" width="160" height="90" as="geometry" />
        </mxCell>
        <mxCell id="LKaX5k4RRb7FWXOqmFCc-7" value="Inventario" style="swimlane;childLayout=stackLayout;horizontal=1;startSize=30;horizontalStack=0;rounded=1;fontSize=14;fontStyle=0;strokeWidth=2;resizeParent=0;resizeLast=1;shadow=0;dashed=0;align=center;" parent="bUCIXgbHZLNIl66ZNkcK-1" vertex="1">
          <mxGeometry x="810" y="370" width="160" height="140" as="geometry" />
        </mxCell>
        <mxCell id="LKaX5k4RRb7FWXOqmFCc-8" value="id&#xa;categoria&#xa;producto&#xa;valorunitario&#xa;iva&#xa;existencia&#xa;&#xa;" style="align=left;strokeColor=none;fillColor=none;spacingLeft=4;fontSize=12;verticalAlign=top;resizable=0;rotatable=0;part=1;" parent="LKaX5k4RRb7FWXOqmFCc-7" vertex="1">
          <mxGeometry y="30" width="160" height="110" as="geometry" />
        </mxCell>
        <mxCell id="un9dYfIY4xJGMcahqC1d-0" value="clientePedido" style="swimlane;childLayout=stackLayout;horizontal=1;startSize=30;horizontalStack=0;rounded=1;fontSize=14;fontStyle=0;strokeWidth=2;resizeParent=0;resizeLast=1;shadow=0;dashed=0;align=center;" parent="bUCIXgbHZLNIl66ZNkcK-1" vertex="1">
          <mxGeometry x="350" y="30" width="160" height="120" as="geometry" />
        </mxCell>
        <mxCell id="un9dYfIY4xJGMcahqC1d-1" value="id_cliente&#xa;id_pedido&#xa;id_cuenta&#xa;fecha&#xa;" style="align=left;strokeColor=none;fillColor=none;spacingLeft=4;fontSize=12;verticalAlign=top;resizable=0;rotatable=0;part=1;" parent="un9dYfIY4xJGMcahqC1d-0" vertex="1">
          <mxGeometry y="30" width="160" height="90" as="geometry" />
        </mxCell>
        <mxCell id="1L7xKCtMu2uKqxoza55a-0" value="" style="edgeStyle=entityRelationEdgeStyle;fontSize=12;html=1;endArrow=ERoneToMany;entryX=0;entryY=0.75;entryDx=0;entryDy=0;exitX=0.5;exitY=0;exitDx=0;exitDy=0;" parent="bUCIXgbHZLNIl66ZNkcK-1" source="bUCIXgbHZLNIl66ZNkcK-2" target="un9dYfIY4xJGMcahqC1d-1" edge="1">
          <mxGeometry width="100" height="100" relative="1" as="geometry">
            <mxPoint x="170" y="170" as="sourcePoint" />
            <mxPoint x="270" y="70" as="targetPoint" />
          </mxGeometry>
        </mxCell>
        <mxCell id="1L7xKCtMu2uKqxoza55a-1" value="" style="edgeStyle=entityRelationEdgeStyle;fontSize=12;html=1;endArrow=ERoneToMany;entryX=1;entryY=0.25;entryDx=0;entryDy=0;exitX=0.75;exitY=0;exitDx=0;exitDy=0;" parent="bUCIXgbHZLNIl66ZNkcK-1" source="LKaX5k4RRb7FWXOqmFCc-5" target="un9dYfIY4xJGMcahqC1d-1" edge="1">
          <mxGeometry width="100" height="100" relative="1" as="geometry">
            <mxPoint x="570" y="160" as="sourcePoint" />
            <mxPoint x="670" y="60" as="targetPoint" />
          </mxGeometry>
        </mxCell>
        <mxCell id="1L7xKCtMu2uKqxoza55a-3" value="inventarioPedido" style="swimlane;childLayout=stackLayout;horizontal=1;startSize=30;horizontalStack=0;rounded=1;fontSize=14;fontStyle=0;strokeWidth=2;resizeParent=0;resizeLast=1;shadow=0;dashed=0;align=center;" parent="bUCIXgbHZLNIl66ZNkcK-1" vertex="1">
          <mxGeometry x="730" y="210" width="160" height="120" as="geometry" />
        </mxCell>
        <mxCell id="1L7xKCtMu2uKqxoza55a-4" value="idPedido&#xa;idInventario&#xa;fecha&#xa;cantidad&#xa;subtotal&#xa;" style="align=left;strokeColor=none;fillColor=none;spacingLeft=4;fontSize=12;verticalAlign=top;resizable=0;rotatable=0;part=1;" parent="1L7xKCtMu2uKqxoza55a-3" vertex="1">
          <mxGeometry y="30" width="160" height="90" as="geometry" />
        </mxCell>
        <mxCell id="1L7xKCtMu2uKqxoza55a-5" value="" style="edgeStyle=entityRelationEdgeStyle;fontSize=12;html=1;endArrow=ERoneToMany;entryX=0;entryY=0.5;entryDx=0;entryDy=0;exitX=1;exitY=0.5;exitDx=0;exitDy=0;" parent="bUCIXgbHZLNIl66ZNkcK-1" source="LKaX5k4RRb7FWXOqmFCc-6" target="1L7xKCtMu2uKqxoza55a-4" edge="1">
          <mxGeometry width="100" height="100" relative="1" as="geometry">
            <mxPoint x="350" y="440" as="sourcePoint" />
            <mxPoint x="450" y="340" as="targetPoint" />
          </mxGeometry>
        </mxCell>
        <mxCell id="1L7xKCtMu2uKqxoza55a-6" value="" style="edgeStyle=entityRelationEdgeStyle;fontSize=12;html=1;endArrow=ERoneToMany;entryX=0.5;entryY=1;entryDx=0;entryDy=0;exitX=0.5;exitY=0;exitDx=0;exitDy=0;" parent="bUCIXgbHZLNIl66ZNkcK-1" source="LKaX5k4RRb7FWXOqmFCc-7" target="1L7xKCtMu2uKqxoza55a-4" edge="1">
          <mxGeometry width="100" height="100" relative="1" as="geometry">
            <mxPoint x="350" y="470" as="sourcePoint" />
            <mxPoint x="450" y="370" as="targetPoint" />
          </mxGeometry>
        </mxCell>
        <mxCell id="1L7xKCtMu2uKqxoza55a-7" value="Cobros" style="swimlane;childLayout=stackLayout;horizontal=1;startSize=30;horizontalStack=0;rounded=1;fontSize=14;fontStyle=0;strokeWidth=2;resizeParent=0;resizeLast=1;shadow=0;dashed=0;align=center;" parent="bUCIXgbHZLNIl66ZNkcK-1" vertex="1">
          <mxGeometry x="280" y="510" width="160" height="140" as="geometry" />
        </mxCell>
        <mxCell id="1L7xKCtMu2uKqxoza55a-8" value="idcobro&#xa;fecha&#xa;valorcobro&#xa;id_cuenta&#xa;id_pedido&#xa;id_pcompuesto" style="align=left;strokeColor=none;fillColor=none;spacingLeft=4;fontSize=12;verticalAlign=top;resizable=0;rotatable=0;part=1;" parent="1L7xKCtMu2uKqxoza55a-7" vertex="1">
          <mxGeometry y="30" width="160" height="110" as="geometry" />
        </mxCell>
        <mxCell id="1L7xKCtMu2uKqxoza55a-10" value="" style="edgeStyle=entityRelationEdgeStyle;fontSize=12;html=1;endArrow=ERoneToMany;entryX=0.25;entryY=0;entryDx=0;entryDy=0;exitX=0.25;exitY=1;exitDx=0;exitDy=0;" parent="bUCIXgbHZLNIl66ZNkcK-1" source="LKaX5k4RRb7FWXOqmFCc-4" target="1L7xKCtMu2uKqxoza55a-7" edge="1">
          <mxGeometry width="100" height="100" relative="1" as="geometry">
            <mxPoint x="50" y="380" as="sourcePoint" />
            <mxPoint x="450" y="370" as="targetPoint" />
          </mxGeometry>
        </mxCell>
        <mxCell id="4oAN75q0JWQZFDYrzFK7-0" value="PedidoCompuesto" style="swimlane;childLayout=stackLayout;horizontal=1;startSize=30;horizontalStack=0;rounded=1;fontSize=14;fontStyle=0;strokeWidth=2;resizeParent=0;resizeLast=1;shadow=0;dashed=0;align=center;" parent="bUCIXgbHZLNIl66ZNkcK-1" vertex="1">
          <mxGeometry x="500" y="380" width="160" height="120" as="geometry" />
        </mxCell>
        <mxCell id="4oAN75q0JWQZFDYrzFK7-1" value="idpcompuesto&#xa;fecha&#xa;pedidos&#xa;valorTotal&#xa;cobrado&#xa;" style="align=left;strokeColor=none;fillColor=none;spacingLeft=4;fontSize=12;verticalAlign=top;resizable=0;rotatable=0;part=1;" parent="4oAN75q0JWQZFDYrzFK7-0" vertex="1">
          <mxGeometry y="30" width="160" height="90" as="geometry" />
        </mxCell>
        <mxCell id="4oAN75q0JWQZFDYrzFK7-2" value="" style="edgeStyle=entityRelationEdgeStyle;fontSize=12;html=1;endArrow=ERoneToMany;entryX=0.5;entryY=1;entryDx=0;entryDy=0;exitX=0.5;exitY=0;exitDx=0;exitDy=0;" parent="bUCIXgbHZLNIl66ZNkcK-1" source="4oAN75q0JWQZFDYrzFK7-0" target="LKaX5k4RRb7FWXOqmFCc-6" edge="1">
          <mxGeometry width="100" height="100" relative="1" as="geometry">
            <mxPoint x="350" y="452" as="sourcePoint" />
            <mxPoint x="450" y="352" as="targetPoint" />
          </mxGeometry>
        </mxCell>
        <mxCell id="4oAN75q0JWQZFDYrzFK7-3" value="" style="edgeStyle=entityRelationEdgeStyle;fontSize=12;html=1;endArrow=ERoneToMany;entryX=0;entryY=0.5;entryDx=0;entryDy=0;exitX=1.013;exitY=0.433;exitDx=0;exitDy=0;exitPerimeter=0;" parent="bUCIXgbHZLNIl66ZNkcK-1" source="1L7xKCtMu2uKqxoza55a-8" target="4oAN75q0JWQZFDYrzFK7-0" edge="1">
          <mxGeometry width="100" height="100" relative="1" as="geometry">
            <mxPoint x="370" y="410" as="sourcePoint" />
            <mxPoint x="470" y="310" as="targetPoint" />
          </mxGeometry>
        </mxCell>
        <mxCell id="qsQYZtQJK23HEx8O-MWX-2" value="" style="edgeStyle=entityRelationEdgeStyle;fontSize=12;html=1;endArrow=ERoneToMany;exitX=0;exitY=0.5;exitDx=0;exitDy=0;entryX=1;entryY=0.5;entryDx=0;entryDy=0;" parent="bUCIXgbHZLNIl66ZNkcK-1" source="bUCIXgbHZLNIl66ZNkcK-3" target="LKaX5k4RRb7FWXOqmFCc-4" edge="1">
          <mxGeometry width="100" height="100" relative="1" as="geometry">
            <mxPoint x="370" y="420" as="sourcePoint" />
            <mxPoint x="470" y="320" as="targetPoint" />
          </mxGeometry>
        </mxCell>
        <mxCell id="O8Q7GyeGqfD-g-UEbY5O-0" value="" style="edgeStyle=entityRelationEdgeStyle;fontSize=12;html=1;endArrow=ERmany;startArrow=ERmany;entryX=0;entryY=0;entryDx=0;entryDy=0;exitX=0.213;exitY=-0.025;exitDx=0;exitDy=0;exitPerimeter=0;" parent="bUCIXgbHZLNIl66ZNkcK-1" source="LKaX5k4RRb7FWXOqmFCc-3" target="un9dYfIY4xJGMcahqC1d-1" edge="1">
          <mxGeometry width="100" height="100" relative="1" as="geometry">
            <mxPoint x="-30" y="230" as="sourcePoint" />
            <mxPoint x="120" y="140" as="targetPoint" />
          </mxGeometry>
        </mxCell>
        <mxCell id="IdOLAr-XqFy8o-T_Xwnv-2" value="clientepedidocomp" style="swimlane;childLayout=stackLayout;horizontal=1;startSize=30;horizontalStack=0;rounded=1;fontSize=14;fontStyle=0;strokeWidth=2;resizeParent=0;resizeLast=1;shadow=0;dashed=0;align=center;" parent="bUCIXgbHZLNIl66ZNkcK-1" vertex="1">
          <mxGeometry x="300" y="310" width="140" height="150" as="geometry" />
        </mxCell>
        <mxCell id="IdOLAr-XqFy8o-T_Xwnv-3" value="id_pedidocompuesto&#xa;id_pedido&#xa;id_cliente&#xa;id_cuenta&#xa;valorTotal&#xa;fecha&#xa;cobrado&#xa;" style="align=left;strokeColor=none;fillColor=none;spacingLeft=4;fontSize=12;verticalAlign=top;resizable=0;rotatable=0;part=1;" parent="IdOLAr-XqFy8o-T_Xwnv-2" vertex="1">
          <mxGeometry y="30" width="140" height="120" as="geometry" />
        </mxCell>
        <mxCell id="IdOLAr-XqFy8o-T_Xwnv-6" value="" style="edgeStyle=entityRelationEdgeStyle;fontSize=12;html=1;endArrow=ERoneToMany;entryX=0.75;entryY=0;entryDx=0;entryDy=0;exitX=0;exitY=0.5;exitDx=0;exitDy=0;" parent="bUCIXgbHZLNIl66ZNkcK-1" source="LKaX5k4RRb7FWXOqmFCc-6" target="IdOLAr-XqFy8o-T_Xwnv-2" edge="1">
          <mxGeometry width="100" height="100" relative="1" as="geometry">
            <mxPoint x="790" y="440" as="sourcePoint" />
            <mxPoint x="890" y="340" as="targetPoint" />
          </mxGeometry>
        </mxCell>
        <mxCell id="IdOLAr-XqFy8o-T_Xwnv-8" value="" style="edgeStyle=entityRelationEdgeStyle;fontSize=12;html=1;endArrow=ERoneToMany;entryX=0;entryY=0.25;entryDx=0;entryDy=0;exitX=1;exitY=0.75;exitDx=0;exitDy=0;" parent="bUCIXgbHZLNIl66ZNkcK-1" source="LKaX5k4RRb7FWXOqmFCc-4" target="IdOLAr-XqFy8o-T_Xwnv-3" edge="1">
          <mxGeometry width="100" height="100" relative="1" as="geometry">
            <mxPoint x="790" y="440" as="sourcePoint" />
            <mxPoint x="890" y="340" as="targetPoint" />
          </mxGeometry>
        </mxCell>
        <mxCell id="IdOLAr-XqFy8o-T_Xwnv-9" value="" style="edgeStyle=entityRelationEdgeStyle;fontSize=12;html=1;endArrow=ERoneToMany;entryX=0;entryY=0;entryDx=0;entryDy=0;exitX=1;exitY=0.25;exitDx=0;exitDy=0;" parent="bUCIXgbHZLNIl66ZNkcK-1" source="IdOLAr-XqFy8o-T_Xwnv-3" target="4oAN75q0JWQZFDYrzFK7-1" edge="1">
          <mxGeometry width="100" height="100" relative="1" as="geometry">
            <mxPoint x="790" y="440" as="sourcePoint" />
            <mxPoint x="890" y="340" as="targetPoint" />
          </mxGeometry>
        </mxCell>
        <mxCell id="IdOLAr-XqFy8o-T_Xwnv-11" value="" style="edgeStyle=entityRelationEdgeStyle;fontSize=12;html=1;endArrow=ERoneToMany;entryX=0.25;entryY=0;entryDx=0;entryDy=0;exitX=0.44;exitY=1.01;exitDx=0;exitDy=0;exitPerimeter=0;" parent="bUCIXgbHZLNIl66ZNkcK-1" source="bUCIXgbHZLNIl66ZNkcK-3" target="IdOLAr-XqFy8o-T_Xwnv-2" edge="1">
          <mxGeometry width="100" height="100" relative="1" as="geometry">
            <mxPoint x="790" y="440" as="sourcePoint" />
            <mxPoint x="890" y="340" as="targetPoint" />
          </mxGeometry>
        </mxCell>
        <mxCell id="IdOLAr-XqFy8o-T_Xwnv-14" value="" style="edgeStyle=entityRelationEdgeStyle;fontSize=12;html=1;endArrow=ERoneToMany;" parent="bUCIXgbHZLNIl66ZNkcK-1" edge="1">
          <mxGeometry width="100" height="100" relative="1" as="geometry">
            <mxPoint x="440" y="640" as="sourcePoint" />
            <mxPoint x="680" y="540" as="targetPoint" />
          </mxGeometry>
        </mxCell>
        <mxCell id="IdOLAr-XqFy8o-T_Xwnv-15" value="" style="edgeStyle=entityRelationEdgeStyle;fontSize=12;html=1;endArrow=ERoneToMany;" parent="bUCIXgbHZLNIl66ZNkcK-1" edge="1">
          <mxGeometry width="100" height="100" relative="1" as="geometry">
            <mxPoint x="680" y="540" as="sourcePoint" />
            <mxPoint x="710" y="310" as="targetPoint" />
          </mxGeometry>
        </mxCell>
      </root>
    </mxGraphModel>
  </diagram>
  <diagram id="rB6eTFeDGDfe97u-Wfpx" name="Page-4">
    <mxGraphModel dx="882" dy="741" grid="1" gridSize="10" guides="1" tooltips="1" connect="1" arrows="1" fold="1" page="1" pageScale="1" pageWidth="850" pageHeight="1100" math="0" shadow="0">
      <root>
        <mxCell id="IHpYR9Pts5vQQg8-7RV3-0" />
        <mxCell id="IHpYR9Pts5vQQg8-7RV3-1" parent="IHpYR9Pts5vQQg8-7RV3-0" />
        <mxCell id="IHpYR9Pts5vQQg8-7RV3-2" value="Three Phases of TDD" style="swimlane;startSize=20;horizontal=1;childLayout=flowLayout;flowOrientation=north;resizable=0;interRankCellSpacing=50;containerType=tree;" vertex="1" parent="IHpYR9Pts5vQQg8-7RV3-1">
          <mxGeometry x="240" y="80" width="170" height="510" as="geometry" />
        </mxCell>
        <mxCell id="IHpYR9Pts5vQQg8-7RV3-3" value="Test Drive Development" style="whiteSpace=wrap;html=1;" vertex="1" parent="IHpYR9Pts5vQQg8-7RV3-2">
          <mxGeometry x="22.5" y="40" width="125" height="70" as="geometry" />
        </mxCell>
        <mxCell id="IHpYR9Pts5vQQg8-7RV3-4" value="Step 1: A precise test: Verify funtionality" style="whiteSpace=wrap;html=1;" vertex="1" parent="IHpYR9Pts5vQQg8-7RV3-2">
          <mxGeometry x="30" y="160" width="110" height="60" as="geometry" />
        </mxCell>
        <mxCell id="IHpYR9Pts5vQQg8-7RV3-5" value="" style="html=1;curved=1;noEdgeStyle=1;orthogonal=1;" edge="1" parent="IHpYR9Pts5vQQg8-7RV3-2" source="IHpYR9Pts5vQQg8-7RV3-3" target="IHpYR9Pts5vQQg8-7RV3-4">
          <mxGeometry relative="1" as="geometry">
            <Array as="points">
              <mxPoint x="85" y="122" />
              <mxPoint x="85" y="148" />
            </Array>
          </mxGeometry>
        </mxCell>
        <mxCell id="IHpYR9Pts5vQQg8-7RV3-9" value="" style="html=1;curved=1;noEdgeStyle=1;orthogonal=1;entryX=0.5;entryY=0;entryDx=0;entryDy=0;" edge="1" parent="IHpYR9Pts5vQQg8-7RV3-2" source="IHpYR9Pts5vQQg8-7RV3-4" target="IHpYR9Pts5vQQg8-7RV3-11">
          <mxGeometry relative="1" as="geometry">
            <mxPoint x="820" y="1643" as="targetPoint" />
            <Array as="points">
              <mxPoint x="85" y="232" />
              <mxPoint x="85" y="258" />
            </Array>
          </mxGeometry>
        </mxCell>
        <mxCell id="IHpYR9Pts5vQQg8-7RV3-11" value="Step 2: Changes in the Code; If fail test to re-executed." style="whiteSpace=wrap;html=1;" vertex="1" parent="IHpYR9Pts5vQQg8-7RV3-2">
          <mxGeometry x="20" y="270" width="130" height="80" as="geometry" />
        </mxCell>
        <mxCell id="IHpYR9Pts5vQQg8-7RV3-12" value="Step 3: Optimization Code;&amp;nbsp; Check redundancy, improve the code." style="whiteSpace=wrap;html=1;" vertex="1" parent="IHpYR9Pts5vQQg8-7RV3-2">
          <mxGeometry x="20" y="400" width="130" height="90" as="geometry" />
        </mxCell>
        <mxCell id="IHpYR9Pts5vQQg8-7RV3-15" value="" style="html=1;curved=1;noEdgeStyle=1;orthogonal=1;entryX=0.5;entryY=0;entryDx=0;entryDy=0;exitX=0.5;exitY=1;exitDx=0;exitDy=0;" edge="1" parent="IHpYR9Pts5vQQg8-7RV3-2" source="IHpYR9Pts5vQQg8-7RV3-11" target="IHpYR9Pts5vQQg8-7RV3-12">
          <mxGeometry relative="1" as="geometry">
            <mxPoint x="625" y="1280" as="sourcePoint" />
            <mxPoint x="625" y="1330" as="targetPoint" />
            <Array as="points">
              <mxPoint x="85" y="362" />
              <mxPoint x="85" y="388" />
            </Array>
          </mxGeometry>
        </mxCell>
        <mxCell id="IHpYR9Pts5vQQg8-7RV3-22" value="" style="swimlane;startSize=20;horizontal=1;childLayout=flowLayout;flowOrientation=north;resizable=0;interRankCellSpacing=50;containerType=tree;" vertex="1" parent="IHpYR9Pts5vQQg8-7RV3-1">
          <mxGeometry x="440" y="200" width="170" height="390" as="geometry" />
        </mxCell>
        <mxCell id="IHpYR9Pts5vQQg8-7RV3-24" value="Unit Test" style="whiteSpace=wrap;html=1;" vertex="1" parent="IHpYR9Pts5vQQg8-7RV3-22">
          <mxGeometry x="30" y="40" width="110" height="60" as="geometry" />
        </mxCell>
        <mxCell id="IHpYR9Pts5vQQg8-7RV3-26" value="" style="html=1;curved=1;noEdgeStyle=1;orthogonal=1;entryX=0.5;entryY=0;entryDx=0;entryDy=0;" edge="1" parent="IHpYR9Pts5vQQg8-7RV3-22" source="IHpYR9Pts5vQQg8-7RV3-24" target="IHpYR9Pts5vQQg8-7RV3-27">
          <mxGeometry relative="1" as="geometry">
            <mxPoint x="960" y="1923" as="targetPoint" />
            <Array as="points">
              <mxPoint x="85" y="112" />
              <mxPoint x="85" y="138" />
            </Array>
          </mxGeometry>
        </mxCell>
        <mxCell id="IHpYR9Pts5vQQg8-7RV3-27" value="Minimal changes and run again" style="whiteSpace=wrap;html=1;" vertex="1" parent="IHpYR9Pts5vQQg8-7RV3-22">
          <mxGeometry x="20" y="150" width="130" height="80" as="geometry" />
        </mxCell>
        <mxCell id="IHpYR9Pts5vQQg8-7RV3-28" value="Enhance general performance" style="whiteSpace=wrap;html=1;" vertex="1" parent="IHpYR9Pts5vQQg8-7RV3-22">
          <mxGeometry x="20" y="280" width="130" height="90" as="geometry" />
        </mxCell>
        <mxCell id="IHpYR9Pts5vQQg8-7RV3-29" value="" style="html=1;curved=1;noEdgeStyle=1;orthogonal=1;entryX=0.5;entryY=0;entryDx=0;entryDy=0;exitX=0.5;exitY=1;exitDx=0;exitDy=0;" edge="1" parent="IHpYR9Pts5vQQg8-7RV3-22" source="IHpYR9Pts5vQQg8-7RV3-27" target="IHpYR9Pts5vQQg8-7RV3-28">
          <mxGeometry relative="1" as="geometry">
            <mxPoint x="765" y="1560" as="sourcePoint" />
            <mxPoint x="765" y="1610" as="targetPoint" />
            <Array as="points">
              <mxPoint x="85" y="242" />
              <mxPoint x="85" y="268" />
            </Array>
          </mxGeometry>
        </mxCell>
        <mxCell id="IHpYR9Pts5vQQg8-7RV3-32" value="" style="edgeStyle=segmentEdgeStyle;endArrow=classic;html=1;entryX=0;entryY=0.5;entryDx=0;entryDy=0;exitX=1;exitY=0.5;exitDx=0;exitDy=0;shape=link;" edge="1" parent="IHpYR9Pts5vQQg8-7RV3-1" source="IHpYR9Pts5vQQg8-7RV3-4" target="IHpYR9Pts5vQQg8-7RV3-24">
          <mxGeometry width="50" height="50" relative="1" as="geometry">
            <mxPoint x="400" y="410" as="sourcePoint" />
            <mxPoint x="450" y="360" as="targetPoint" />
          </mxGeometry>
        </mxCell>
        <mxCell id="IHpYR9Pts5vQQg8-7RV3-34" value="" style="edgeStyle=segmentEdgeStyle;endArrow=classic;html=1;exitX=1;exitY=0.5;exitDx=0;exitDy=0;entryX=0;entryY=0.5;entryDx=0;entryDy=0;shape=link;" edge="1" parent="IHpYR9Pts5vQQg8-7RV3-1" source="IHpYR9Pts5vQQg8-7RV3-11" target="IHpYR9Pts5vQQg8-7RV3-27">
          <mxGeometry width="50" height="50" relative="1" as="geometry">
            <mxPoint x="400" y="410" as="sourcePoint" />
            <mxPoint x="450" y="360" as="targetPoint" />
          </mxGeometry>
        </mxCell>
        <mxCell id="IHpYR9Pts5vQQg8-7RV3-35" value="" style="edgeStyle=segmentEdgeStyle;endArrow=classic;html=1;exitX=1;exitY=0.5;exitDx=0;exitDy=0;entryX=0;entryY=0.5;entryDx=0;entryDy=0;shape=link;" edge="1" parent="IHpYR9Pts5vQQg8-7RV3-1" source="IHpYR9Pts5vQQg8-7RV3-12" target="IHpYR9Pts5vQQg8-7RV3-28">
          <mxGeometry width="50" height="50" relative="1" as="geometry">
            <mxPoint x="400" y="410" as="sourcePoint" />
            <mxPoint x="450" y="360" as="targetPoint" />
          </mxGeometry>
        </mxCell>
      </root>
    </mxGraphModel>
  </diagram>
</mxfile>
